<mxfile host="app.diagrams.net" modified="2022-02-06T12:07:48.410Z" agent="5.0 (Macintosh; Intel Mac OS X 10_15_7) AppleWebKit/537.36 (KHTML, like Gecko) Chrome/97.0.4692.99 Safari/537.36" etag="1qv3rGXRX_hJ8W1n-E3G" version="16.1.0" type="github">
  <diagram id="kKKBauiVSZJUd0EJvDRs" name="第 1 页">
    <mxGraphModel dx="1142" dy="797" grid="0" gridSize="10" guides="1" tooltips="1" connect="1" arrows="1" fold="1" page="1" pageScale="1" pageWidth="1169" pageHeight="1654" background="#000000" math="0" shadow="0">
      <root>
        <mxCell id="0" />
        <mxCell id="1" parent="0" />
        <mxCell id="cEgPTifoMlzSRo71rsin-1" value="" style="endArrow=classic;html=1;rounded=0;strokeWidth=2;strokeColor=#FFFFFF;" edge="1" parent="1">
          <mxGeometry width="50" height="50" relative="1" as="geometry">
            <mxPoint x="229" y="91" as="sourcePoint" />
            <mxPoint x="229" y="731" as="targetPoint" />
          </mxGeometry>
        </mxCell>
        <mxCell id="cEgPTifoMlzSRo71rsin-2" value="" style="endArrow=classic;html=1;rounded=0;strokeWidth=2;strokeColor=#FFFFFF;" edge="1" parent="1">
          <mxGeometry width="50" height="50" relative="1" as="geometry">
            <mxPoint x="878" y="89" as="sourcePoint" />
            <mxPoint x="878" y="729" as="targetPoint" />
          </mxGeometry>
        </mxCell>
        <mxCell id="cEgPTifoMlzSRo71rsin-3" value="" style="endArrow=classic;html=1;rounded=0;strokeColor=#FFFFFF;strokeWidth=2;dashed=1;" edge="1" parent="1">
          <mxGeometry width="50" height="50" relative="1" as="geometry">
            <mxPoint x="253" y="200" as="sourcePoint" />
            <mxPoint x="854" y="200" as="targetPoint" />
          </mxGeometry>
        </mxCell>
        <mxCell id="cEgPTifoMlzSRo71rsin-4" value="" style="endArrow=classic;html=1;rounded=0;dashed=1;strokeColor=#FFFFFF;strokeWidth=2;" edge="1" parent="1">
          <mxGeometry width="50" height="50" relative="1" as="geometry">
            <mxPoint x="250" y="408" as="sourcePoint" />
            <mxPoint x="250" y="408" as="targetPoint" />
            <Array as="points">
              <mxPoint x="836" y="408" />
            </Array>
          </mxGeometry>
        </mxCell>
        <mxCell id="cEgPTifoMlzSRo71rsin-5" value="" style="endArrow=classic;html=1;rounded=0;strokeColor=#FFFFFF;strokeWidth=2;dashed=1;" edge="1" parent="1">
          <mxGeometry width="50" height="50" relative="1" as="geometry">
            <mxPoint x="248" y="619" as="sourcePoint" />
            <mxPoint x="849" y="619" as="targetPoint" />
          </mxGeometry>
        </mxCell>
        <mxCell id="cEgPTifoMlzSRo71rsin-6" value="&lt;font color=&quot;#ffffff&quot;&gt;&lt;font style=&quot;font-size: 33px&quot;&gt;Request&lt;/font&gt;&lt;span style=&quot;font-size: 13px&quot;&gt;&amp;nbsp;&lt;/span&gt;&lt;/font&gt;" style="text;html=1;align=center;verticalAlign=middle;resizable=0;points=[];autosize=1;strokeColor=none;fillColor=none;" vertex="1" parent="1">
          <mxGeometry x="473" y="149" width="137" height="25" as="geometry" />
        </mxCell>
        <mxCell id="cEgPTifoMlzSRo71rsin-8" value="Response HTTP 200&lt;br&gt;Cookie: Session ID" style="text;html=1;align=center;verticalAlign=middle;resizable=0;points=[];autosize=1;strokeColor=none;fillColor=none;fontSize=33;fontColor=#FFFFFF;" vertex="1" parent="1">
          <mxGeometry x="387" y="315" width="318" height="84" as="geometry" />
        </mxCell>
        <mxCell id="cEgPTifoMlzSRo71rsin-9" value="Request&lt;br&gt;Cookie: Session ID" style="text;html=1;align=center;verticalAlign=middle;resizable=0;points=[];autosize=1;strokeColor=none;fillColor=none;fontSize=33;fontColor=#FFFFFF;" vertex="1" parent="1">
          <mxGeometry x="396.5" y="523" width="291" height="84" as="geometry" />
        </mxCell>
        <mxCell id="cEgPTifoMlzSRo71rsin-10" value="Browser" style="text;html=1;align=center;verticalAlign=middle;resizable=0;points=[];autosize=1;strokeColor=none;fillColor=none;fontSize=33;fontColor=#FFFFFF;" vertex="1" parent="1">
          <mxGeometry x="162" y="34" width="131" height="44" as="geometry" />
        </mxCell>
        <mxCell id="cEgPTifoMlzSRo71rsin-12" value="Server" style="text;html=1;align=center;verticalAlign=middle;resizable=0;points=[];autosize=1;strokeColor=none;fillColor=none;fontSize=33;fontColor=#FFFFFF;" vertex="1" parent="1">
          <mxGeometry x="820" y="34" width="107" height="44" as="geometry" />
        </mxCell>
      </root>
    </mxGraphModel>
  </diagram>
</mxfile>
